<?xml version="1.0" encoding="utf-8"?>
<!-- Generator: Adobe Illustrator 18.1.1, SVG Export Plug-In . SVG Version: 6.00 Build 0)  -->
<svg version="1.1" id="Layer_1" xmlns="http://www.w3.org/2000/svg" xmlns:xlink="http://www.w3.org/1999/xlink" x="0px" y="0px"
	 viewBox="0 0 960 560" enable-background="new 0 0 960 560" xml:space="preserve">
<g>
	<g>
		<path fill="white" d="M523.5,270.9c-2.5-2.4-6-3.9-10.1-3.9c-4.1,0-7.6,1.5-10.1,4c-1.6,1.5-2.7,3.4-3.4,5.5c-0.6-2-1.8-3.9-3.3-5.3
			c-2.5-2.3-6-3.7-10.2-3.7h-10.5v15.5c-0.7-1.4-1.9-2.4-3.4-3.1c1.5-1.1,2.7-2.8,2.7-5.3v-0.1c0-2.1-0.9-3.9-2.5-5.2
			c-1.6-1.2-3.8-1.9-6.5-1.9h-12.4v15.5c-0.7-1.4-1.9-2.4-3.4-3.1c1.5-1.1,2.7-2.8,2.7-5.3v-0.1c0-2.1-0.9-3.9-2.5-5.2
			c-1.6-1.2-3.8-1.9-6.5-1.9h-12.4v26.1h12.7c2.9,0,5.4-0.6,7.3-1.8c1-0.7,1.7-1.5,2.2-2.5v4.4h12.7c2.9,0,5.4-0.6,7.3-1.8
			c1-0.7,1.7-1.5,2.2-2.5v4.4h10.5c4.1,0,7.7-1.4,10.2-3.8c1.5-1.4,2.7-3.2,3.3-5.3c0.7,2.1,1.8,4,3.4,5.5c2.5,2.4,6,3.9,10.1,3.9h0
			c4.1,0,7.6-1.5,10.1-4c2.5-2.4,4-5.8,4-9.5v-0.1C527.5,276.7,526,273.4,523.5,270.9z M438.2,273.4h4.9c1.1,0,1.9,0.2,2.4,0.6
			c0.5,0.3,0.7,0.7,0.7,1.4v0.1h0c0,0.8-0.3,1.2-0.8,1.5c-0.5,0.3-1.4,0.5-2.6,0.5h-4.6V273.4z M447.6,285.5c0,0.8-0.3,1.2-0.8,1.6
			c-0.5,0.3-1.4,0.6-2.6,0.6h-6v-4.3h5.9c1.4,0,2.3,0.3,2.8,0.6C447.3,284.3,447.5,284.7,447.6,285.5L447.6,285.5z M460.3,273.4h4.9
			c1.1,0,1.9,0.2,2.4,0.6c0.5,0.3,0.7,0.7,0.7,1.4v0.1h0c0,0.8-0.3,1.2-0.8,1.5c-0.5,0.3-1.4,0.5-2.6,0.5h-4.6V273.4z M469.7,285.5
			c0,0.8-0.3,1.2-0.8,1.6c-0.5,0.3-1.4,0.6-2.6,0.6h-6v-4.3h5.9c1.4,0,2.3,0.3,2.8,0.6C469.5,284.3,469.7,284.7,469.7,285.5
			L469.7,285.5z M493.4,280.6c0,4.1-2.8,6.8-7.1,6.9h-3.7v-13.9h3.7C490.6,273.6,493.4,276.4,493.4,280.6L493.4,280.6z M520.4,280.6
			c0,4-2.9,7.2-7,7.2c-4.2,0-7.1-3.3-7.1-7.2v-0.1c0-4,2.9-7.2,7-7.2C517.5,273.3,520.4,276.5,520.4,280.6L520.4,280.6z"/>
	</g>
</g>
</svg>
