<svg xmlns="http://www.w3.org/2000/svg" xmlns:xlink="http://www.w3.org/1999/xlink" preserveAspectRatio="xMidYMid" width="96" height="27" viewBox="0 0 96 27">
  <defs>
    <style>

      .cls-2 {
        fill: #ffffff;
      }
    </style>
  </defs>
  <path d="M91.986,23.035 C89.469,25.483 85.921,26.998 81.846,26.998 C81.846,26.998 81.841,26.998 81.841,26.998 C77.766,27.000 74.233,25.502 71.732,23.070 C70.161,21.545 68.996,19.650 68.346,17.536 C67.696,19.556 66.561,21.355 65.025,22.799 C62.529,25.153 58.992,26.571 54.857,26.571 C54.857,26.571 44.327,26.571 44.327,26.571 C44.327,26.571 44.327,22.213 44.327,22.213 C43.836,23.237 43.092,24.098 42.128,24.753 C40.317,25.991 37.818,26.569 34.869,26.570 C34.869,26.570 22.164,26.570 22.164,26.570 C22.164,26.570 22.164,22.210 22.164,22.210 C21.673,23.235 20.929,24.097 19.964,24.753 C18.152,25.991 15.653,26.569 12.705,26.570 C12.705,26.570 -0.000,26.570 -0.000,26.570 C-0.000,26.570 -0.000,0.431 -0.000,0.431 C-0.000,0.431 12.414,0.431 12.414,0.431 C15.109,0.431 17.345,1.084 18.934,2.313 C20.526,3.538 21.419,5.356 21.412,7.477 C21.412,7.477 21.412,7.547 21.412,7.547 C21.427,10.053 20.249,11.730 18.759,12.820 C20.271,13.536 21.469,14.541 22.164,15.937 C22.164,15.937 22.164,0.431 22.164,0.431 C22.164,0.431 34.577,0.431 34.577,0.431 C37.273,0.431 39.509,1.084 41.098,2.313 C42.689,3.538 43.582,5.356 43.576,7.477 C43.576,7.477 43.576,7.547 43.576,7.547 C43.591,10.053 42.413,11.730 40.923,12.820 C42.434,13.536 43.631,14.540 44.327,15.936 C44.327,15.936 44.327,0.430 44.327,0.430 C44.327,0.430 54.850,0.430 54.850,0.430 C58.985,0.429 62.525,1.826 65.023,4.163 C66.578,5.615 67.725,7.427 68.372,9.471 C69.032,7.373 70.201,5.489 71.768,3.966 C74.287,1.515 77.838,0.000 81.912,0.002 C85.988,0.000 89.519,1.497 92.022,3.930 C94.525,6.363 96.000,9.728 95.999,13.430 C95.999,13.430 95.999,13.500 95.999,13.500 C96.000,17.204 94.506,20.586 91.986,23.035 ZM14.642,8.473 C14.642,8.473 14.642,8.402 14.642,8.402 C14.631,7.735 14.413,7.327 13.947,6.988 C13.474,6.654 12.680,6.429 11.577,6.430 C11.577,6.430 6.661,6.430 6.661,6.430 C6.661,6.430 6.661,10.518 6.661,10.518 C6.661,10.518 11.215,10.518 11.215,10.518 C12.387,10.520 13.294,10.322 13.837,9.984 C14.373,9.637 14.625,9.237 14.642,8.473 C14.642,8.473 14.642,8.473 14.642,8.473 ZM16.058,18.385 C16.047,17.690 15.834,17.253 15.320,16.887 C14.801,16.524 13.887,16.267 12.522,16.269 C12.522,16.269 6.662,16.269 6.662,16.269 C6.662,16.269 6.662,20.570 6.662,20.570 C6.662,20.570 12.705,20.570 12.705,20.570 C13.871,20.573 14.749,20.359 15.275,20.010 C15.793,19.655 16.044,19.228 16.058,18.455 C16.058,18.455 16.058,18.385 16.058,18.385 ZM36.805,8.402 C36.794,7.735 36.576,7.327 36.110,6.988 C35.640,6.654 34.844,6.429 33.743,6.430 C33.743,6.430 28.824,6.430 28.824,6.430 C28.824,6.430 28.824,10.516 28.824,10.516 C28.824,10.516 33.379,10.516 33.379,10.516 C34.551,10.520 35.456,10.322 36.000,9.984 C36.537,9.637 36.790,9.237 36.805,8.473 C36.805,8.473 36.805,8.473 36.805,8.473 C36.805,8.473 36.805,8.402 36.805,8.402 ZM38.223,18.385 C38.211,17.690 37.996,17.252 37.484,16.887 C36.966,16.524 36.050,16.267 34.687,16.269 C34.687,16.269 28.824,16.269 28.824,16.269 C28.824,16.269 28.824,20.570 28.824,20.570 C28.824,20.570 34.868,20.570 34.868,20.570 C36.035,20.573 36.913,20.359 37.438,20.010 C37.958,19.655 38.209,19.228 38.223,18.455 C38.223,18.455 38.223,18.385 38.223,18.385 ZM61.912,13.500 C61.879,9.364 59.134,6.604 54.850,6.573 C54.850,6.573 51.134,6.573 51.134,6.573 C51.134,6.573 51.134,20.427 51.134,20.427 C51.134,20.427 54.850,20.427 54.850,20.427 C59.143,20.393 61.878,17.703 61.912,13.571 C61.912,13.571 61.912,13.500 61.912,13.500 ZM88.938,13.500 C88.924,9.511 85.996,6.257 81.841,6.252 C77.680,6.262 74.835,9.433 74.815,13.430 C74.815,13.430 74.815,13.500 74.815,13.500 C74.830,17.489 77.757,20.742 81.912,20.747 C86.074,20.738 88.920,17.567 88.938,13.571 C88.938,13.571 88.938,13.500 88.938,13.500 Z" id="path-1" class="cls-2" fill-rule="evenodd"/>
</svg>
